# xmcd
# Track frame offsets:
# 150
# 13527
# 28227
# 44458
# 56788
# 73289
# 89107
# 107083
# 123179
# 142145
# 157669
# 174802
# 189012
# 208303
#
# Disc length: 3002 seconds
# Revision: 0
# Processed by: cddbd v1.5.2PL0 Copyright (c) Steve Scherf et al.
# Submitted via: VisiTrax 2.9.10.228 - For more info visit www.synapsa.com
#
DISCID=c60bb80e
DTITLE=Anni Filt - Storms never last
DYEAR=1900
DGENRE=
TTITLE0=Falling in love again
TTITLE1=Got on this train
TTITLE2=Loving arms
TTITLE3=Dance with the one
TTITLE4=The bug
TTITLE5=Mud on the tires
TTITLE6=Even cowgirls get the blues
TTITLE7=Blame it on your heart
TTITLE8=Walk away
TTITLE9=Dreaming with my eyes open
TTITLE10=Living on love
TTITLE11=That don't bother me
TTITLE12=Never had it so good
TTITLE13=Storms never last
EXTD=
EXTT0=
EXTT1=
EXTT2=
EXTT3=
EXTT4=
EXTT5=
EXTT6=
EXTT7=
EXTT8=
EXTT9=
EXTT10=
EXTT11=
EXTT12=
EXTT13=
PLAYORDER=
